<svg width="752" height="541" viewBox="0 0 752 541" fill="none" xmlns="http://www.w3.org/2000/svg">
<g opacity="0.8">
<path d="M8 110C-24.5 65.5 55.5 0 55.5 0L751.5 -1V523.935C751.913 534.094 751.5 540.5 751.5 540.5V523.935C749.985 486.684 737.357 398.964 652.5 391.5C544.5 382 565 556.599 460 528C355 499.401 401.5 419.5 335.5 365.5C269.5 311.5 207 367 162 314.5C117 262 211.5 194 183 148C154.5 102 40.5 154.5 8 110Z" fill="#16D079"/>
<path d="M88.0598 65.8532C58.5203 25.4211 131.233 -34.0914 131.233 -34.0914L763.833 -35V441.949C764.209 451.18 763.833 457 763.833 457V441.949C762.456 408.103 750.978 328.402 673.851 321.621C575.689 312.989 594.322 471.628 498.886 445.643C403.451 419.658 445.715 347.061 385.727 297.997C325.739 248.934 268.933 299.36 228.032 251.659C187.131 203.958 273.023 142.175 247.119 100.38C221.215 58.5845 117.599 106.285 88.0598 65.8532Z" fill="#16E484"/>
<path d="M160.181 27.349C134.318 -8.07018 197.981 -60.2041 197.981 -60.2041L751.854 -61V356.815C752.183 364.902 751.854 370 751.854 370V356.815C750.648 327.165 740.599 257.346 673.07 251.405C587.124 243.844 603.438 382.814 519.88 360.051C436.322 337.288 473.326 273.692 420.804 230.711C368.281 187.73 318.544 231.905 282.733 190.118C246.923 148.331 322.125 94.2077 299.445 57.5946C276.765 20.9815 186.044 62.7682 160.181 27.349Z" fill="#1BF58F"/>
</g>
</svg>
