<svg width="604" height="426" viewBox="0 0 604 426" fill="none" xmlns="http://www.w3.org/2000/svg">
<g opacity="0.1">
<path d="M597.117 74.586C623.647 38.261 558.343 -15.2062 558.343 -15.2062L-9.79651 -16.0225V412.478C-10.1339 420.771 -9.79651 426 -9.79651 426V412.478C-8.55957 382.07 1.74817 310.465 71.0165 304.372C159.176 296.618 142.442 439.142 228.153 415.796C313.864 392.451 275.906 327.229 329.781 283.149C383.657 239.069 434.675 284.373 471.408 241.518C508.141 198.662 431.002 143.155 454.266 105.605C477.53 68.0557 570.588 110.911 597.117 74.586Z" fill="#16D079"/>
<path d="M531.765 38.5493C555.878 5.5449 496.523 -43.0347 496.523 -43.0347L-19.8637 -43.7764V345.554C-20.1703 353.089 -19.8637 357.84 -19.8637 357.84V345.554C-18.7394 317.925 -9.37054 252.866 53.5879 247.33C133.717 240.284 118.507 369.78 196.41 348.569C274.314 327.357 239.814 268.097 288.781 228.047C337.749 187.996 384.12 229.159 417.507 190.221C450.894 151.284 380.781 100.85 401.926 66.7329C423.071 32.616 507.652 71.5538 531.765 38.5493Z" fill="#43FFA7"/>
<path d="M472.893 7.11866C494.005 -21.7938 442.037 -64.3503 442.037 -64.3503L-10.0852 -65V276.06C-10.3537 282.66 -10.0852 286.822 -10.0852 286.822V276.06C-9.10086 251.857 -0.89801 194.864 54.2253 190.014C124.382 183.842 111.065 297.282 179.273 278.701C247.481 260.119 217.275 208.206 260.149 173.122C303.022 138.037 343.622 174.096 372.854 139.986C402.086 105.876 340.699 61.6949 359.213 31.8079C377.726 1.92091 451.781 36.0311 472.893 7.11866Z" fill="white"/>
</g>
</svg>
